<svg xmlns="http://www.w3.org/2000/svg" width="1280" height="800" viewBox="0 0 1280 800">
  <defs>
    <radialGradient id="glow" cx="62%" cy="38%" r="62%">
      <stop offset="0%" stop-color="#4fcbc0" stop-opacity="0.30"/>
      <stop offset="55%" stop-color="#4fcbc0" stop-opacity="0.06"/>
      <stop offset="100%" stop-color="#080b10" stop-opacity="0"/>
    </radialGradient>
    <linearGradient id="fade" x1="0" y1="0" x2="0" y2="1">
      <stop offset="0%" stop-color="#080b10" stop-opacity="0"/>
      <stop offset="100%" stop-color="#080b10" stop-opacity="0.85"/>
    </linearGradient>
  </defs>
  <rect width="1280" height="800" fill="#080b10"/>
  <rect width="1280" height="800" fill="url(#glow)"/><path d="M640 400 L640 165" fill="none" stroke="#4fcbc0" stroke-opacity="0.3" stroke-width="2"/><circle cx="640" cy="165" r="30" fill="#080b10" stroke="#4fcbc0" stroke-opacity="0.6" stroke-width="2"/><circle cx="640" cy="165" r="9" fill="#4fcbc0" fill-opacity="0.7"/><path d="M640 400 L806.1700935788386 233.82990642116135" fill="none" stroke="#4fcbc0" stroke-opacity="0.3" stroke-width="2"/><circle cx="806.1700935788386" cy="233.82990642116135" r="30" fill="#080b10" stroke="#4fcbc0" stroke-opacity="0.6" stroke-width="2"/><circle cx="806.1700935788386" cy="233.82990642116135" r="9" fill="#4fcbc0" fill-opacity="0.7"/><path d="M640 400 L875 400" fill="none" stroke="#4fcbc0" stroke-opacity="0.3" stroke-width="2"/><circle cx="875" cy="400" r="30" fill="#080b10" stroke="#4fcbc0" stroke-opacity="0.6" stroke-width="2"/><circle cx="875" cy="400" r="9" fill="#4fcbc0" fill-opacity="0.7"/><path d="M640 400 L806.1700935788386 566.1700935788386" fill="none" stroke="#4fcbc0" stroke-opacity="0.3" stroke-width="2"/><circle cx="806.1700935788386" cy="566.1700935788386" r="30" fill="#080b10" stroke="#4fcbc0" stroke-opacity="0.6" stroke-width="2"/><circle cx="806.1700935788386" cy="566.1700935788386" r="9" fill="#4fcbc0" fill-opacity="0.7"/><path d="M640 400 L640 635" fill="none" stroke="#4fcbc0" stroke-opacity="0.3" stroke-width="2"/><circle cx="640" cy="635" r="30" fill="#080b10" stroke="#4fcbc0" stroke-opacity="0.6" stroke-width="2"/><circle cx="640" cy="635" r="9" fill="#4fcbc0" fill-opacity="0.7"/><path d="M640 400 L473.82990642116135 566.1700935788386" fill="none" stroke="#4fcbc0" stroke-opacity="0.3" stroke-width="2"/><circle cx="473.82990642116135" cy="566.1700935788386" r="30" fill="#080b10" stroke="#4fcbc0" stroke-opacity="0.6" stroke-width="2"/><circle cx="473.82990642116135" cy="566.1700935788386" r="9" fill="#4fcbc0" fill-opacity="0.7"/><path d="M640 400 L405 400.00000000000006" fill="none" stroke="#4fcbc0" stroke-opacity="0.3" stroke-width="2"/><circle cx="405" cy="400.00000000000006" r="30" fill="#080b10" stroke="#4fcbc0" stroke-opacity="0.6" stroke-width="2"/><circle cx="405" cy="400.00000000000006" r="9" fill="#4fcbc0" fill-opacity="0.7"/><path d="M640 400 L473.8299064211613 233.82990642116135" fill="none" stroke="#4fcbc0" stroke-opacity="0.3" stroke-width="2"/><circle cx="473.8299064211613" cy="233.82990642116135" r="30" fill="#080b10" stroke="#4fcbc0" stroke-opacity="0.6" stroke-width="2"/><circle cx="473.8299064211613" cy="233.82990642116135" r="9" fill="#4fcbc0" fill-opacity="0.7"/><circle cx="640" cy="400" r="72" fill="#080b10" stroke="#4fcbc0" stroke-opacity="0.9" stroke-width="3"/><circle cx="640" cy="400" r="26" fill="#4fcbc0" fill-opacity="0.9"/><rect width="1280" height="800" fill="url(#fade)"/></svg>