<svg xmlns="http://www.w3.org/2000/svg" width="1280" height="800" viewBox="0 0 1280 800">
  <defs>
    <radialGradient id="glow" cx="62%" cy="38%" r="62%">
      <stop offset="0%" stop-color="#4fcbc0" stop-opacity="0.30"/>
      <stop offset="55%" stop-color="#4fcbc0" stop-opacity="0.06"/>
      <stop offset="100%" stop-color="#080b10" stop-opacity="0"/>
    </radialGradient>
    <linearGradient id="fade" x1="0" y1="0" x2="0" y2="1">
      <stop offset="0%" stop-color="#080b10" stop-opacity="0"/>
      <stop offset="100%" stop-color="#080b10" stop-opacity="0.85"/>
    </linearGradient>
  </defs>
  <rect width="1280" height="800" fill="#080b10"/>
  <rect width="1280" height="800" fill="url(#glow)"/><path d="M100 620 C 360 620, 380 300, 640 300 S 940 500, 1180 380" fill="none" stroke="#4fcbc0" stroke-opacity="0.35" stroke-width="3" stroke-dasharray="14 14"/><circle cx="190" cy="596" r="26" fill="#080b10" fill="none" stroke="#4fcbc0" stroke-opacity="0.7" stroke-width="2"/><circle cx="190" cy="596" r="8" fill="#4fcbc0" fill-opacity="0.85"/><circle cx="470" cy="350" r="24" fill="#080b10" fill="none" stroke="#4fcbc0" stroke-opacity="0.7" stroke-width="2"/><circle cx="470" cy="350" r="8" fill="#4fcbc0" fill-opacity="0.85"/><circle cx="760" cy="330" r="22" fill="#080b10" fill="none" stroke="#4fcbc0" stroke-opacity="0.7" stroke-width="2"/><circle cx="760" cy="330" r="8" fill="#4fcbc0" fill-opacity="0.85"/><circle cx="1050" cy="430" r="20" fill="#080b10" fill="none" stroke="#4fcbc0" stroke-opacity="0.7" stroke-width="2"/><circle cx="1050" cy="430" r="8" fill="#4fcbc0" fill-opacity="0.85"/><path d="M300 190 h120 l30 -55 l38 110 l30 -55 h150" fill="none" stroke="#4fcbc0" stroke-opacity="0.75" stroke-width="3"/><rect width="1280" height="800" fill="url(#fade)"/></svg>